<svg width="24" height="24" viewBox="0 0 24 24" fill="none" xmlns="http://www.w3.org/2000/svg">
<path d="M12.0001 7.89136L10.9301 9.75136C10.6901 10.1614 10.8901 10.5014 11.3601 10.5014H12.6301C13.1101 10.5014 13.3001 10.8414 13.0601 11.2514L12.0001 13.1114" stroke="#00B3C6" stroke-width="1.5" stroke-linecap="round" stroke-linejoin="round"/>
<path d="M8.29938 18.0409V16.8809C5.99938 15.4909 4.10938 12.7809 4.10938 9.90091C4.10938 4.95091 8.65938 1.07091 13.7994 2.19091C16.0594 2.69091 18.0394 4.19091 19.0694 6.26091C21.1594 10.4609 18.9594 14.9209 15.7294 16.8709V18.0309C15.7294 18.3209 15.8394 18.9909 14.7694 18.9909H9.25938C8.15938 19.0009 8.29938 18.5709 8.29938 18.0409Z" stroke="#00B3C6" stroke-width="1.5" stroke-linecap="round" stroke-linejoin="round"/>
<path d="M8.5 22.0007C10.79 21.3507 13.21 21.3507 15.5 22.0007" stroke="#00B3C6" stroke-width="1.5" stroke-linecap="round" stroke-linejoin="round"/>
</svg>
